<mxfile host="app.diagrams.net" modified="2023-04-17T09:11:13.421Z" agent="Mozilla/5.0 (Windows NT 10.0; Win64; x64) AppleWebKit/537.36 (KHTML, like Gecko) Chrome/112.0.0.0 Safari/537.36" etag="1MqpaYWsAZ27LCu5sCke" version="21.1.2" type="github">
  <diagram name="Page-1" id="YvmGlnQoCAkdHpRiBhS_">
    <mxGraphModel dx="1434" dy="764" grid="1" gridSize="10" guides="1" tooltips="1" connect="1" arrows="1" fold="1" page="1" pageScale="1" pageWidth="850" pageHeight="1100" math="0" shadow="0">
      <root>
        <mxCell id="0" />
        <mxCell id="1" parent="0" />
        <mxCell id="ImkLpgyotiM5VfZSCSUG-3" value="" style="edgeStyle=orthogonalEdgeStyle;rounded=0;orthogonalLoop=1;jettySize=auto;html=1;" edge="1" parent="1" source="ImkLpgyotiM5VfZSCSUG-1" target="ImkLpgyotiM5VfZSCSUG-2">
          <mxGeometry relative="1" as="geometry" />
        </mxCell>
        <mxCell id="ImkLpgyotiM5VfZSCSUG-1" value="阿斯蒂芬" style="rounded=1;whiteSpace=wrap;html=1;sketch=1;curveFitting=1;jiggle=2;" vertex="1" parent="1">
          <mxGeometry x="190" y="300" width="120" height="60" as="geometry" />
        </mxCell>
        <mxCell id="ImkLpgyotiM5VfZSCSUG-5" value="" style="edgeStyle=orthogonalEdgeStyle;rounded=0;orthogonalLoop=1;jettySize=auto;html=1;" edge="1" parent="1" source="ImkLpgyotiM5VfZSCSUG-2" target="ImkLpgyotiM5VfZSCSUG-4">
          <mxGeometry relative="1" as="geometry" />
        </mxCell>
        <mxCell id="ImkLpgyotiM5VfZSCSUG-2" value="阿斯蒂芬" style="rounded=1;whiteSpace=wrap;html=1;sketch=1;curveFitting=1;jiggle=2;" vertex="1" parent="1">
          <mxGeometry x="390" y="300" width="120" height="60" as="geometry" />
        </mxCell>
        <mxCell id="ImkLpgyotiM5VfZSCSUG-4" value="" style="ellipse;whiteSpace=wrap;html=1;rounded=1;sketch=1;curveFitting=1;jiggle=2;" vertex="1" parent="1">
          <mxGeometry x="410" y="430" width="80" height="80" as="geometry" />
        </mxCell>
      </root>
    </mxGraphModel>
  </diagram>
</mxfile>
